<mxfile host="app.diagrams.net" agent="Mozilla/5.0 (Windows NT 10.0; Win64; x64) AppleWebKit/537.36 (KHTML, like Gecko) Chrome/132.0.0.0 Safari/537.36 Edg/132.0.0.0" version="26.0.11">
  <diagram name="Страница — 1" id="iw_jRJpIRVuIbaMEodyu">
    <mxGraphModel dx="1042" dy="1734" grid="1" gridSize="10" guides="1" tooltips="1" connect="1" arrows="1" fold="1" page="1" pageScale="1" pageWidth="827" pageHeight="1169" math="0" shadow="0">
      <root>
        <mxCell id="0" />
        <mxCell id="1" parent="0" />
        <mxCell id="BVVbuW9btlbcQaSLM_UI-37" style="edgeStyle=orthogonalEdgeStyle;rounded=0;orthogonalLoop=1;jettySize=auto;html=1;exitX=0.5;exitY=1;exitDx=0;exitDy=0;entryX=0.5;entryY=0;entryDx=0;entryDy=0;" edge="1" parent="1" source="BVVbuW9btlbcQaSLM_UI-1" target="BVVbuW9btlbcQaSLM_UI-2">
          <mxGeometry relative="1" as="geometry" />
        </mxCell>
        <mxCell id="BVVbuW9btlbcQaSLM_UI-1" value="Начало" style="ellipse;whiteSpace=wrap;html=1;" vertex="1" parent="1">
          <mxGeometry x="340" y="-10" width="120" height="80" as="geometry" />
        </mxCell>
        <mxCell id="BVVbuW9btlbcQaSLM_UI-38" style="edgeStyle=orthogonalEdgeStyle;rounded=0;orthogonalLoop=1;jettySize=auto;html=1;exitX=0.5;exitY=1;exitDx=0;exitDy=0;entryX=0.5;entryY=0;entryDx=0;entryDy=0;" edge="1" parent="1" source="BVVbuW9btlbcQaSLM_UI-2" target="BVVbuW9btlbcQaSLM_UI-3">
          <mxGeometry relative="1" as="geometry" />
        </mxCell>
        <mxCell id="BVVbuW9btlbcQaSLM_UI-2" value="&amp;nbsp;int range_min, range_max;" style="rounded=0;whiteSpace=wrap;html=1;" vertex="1" parent="1">
          <mxGeometry x="340" y="120" width="120" height="60" as="geometry" />
        </mxCell>
        <mxCell id="BVVbuW9btlbcQaSLM_UI-39" style="edgeStyle=orthogonalEdgeStyle;rounded=0;orthogonalLoop=1;jettySize=auto;html=1;exitX=0.5;exitY=1;exitDx=0;exitDy=0;entryX=0.5;entryY=0;entryDx=0;entryDy=0;" edge="1" parent="1" source="BVVbuW9btlbcQaSLM_UI-3" target="BVVbuW9btlbcQaSLM_UI-4">
          <mxGeometry relative="1" as="geometry" />
        </mxCell>
        <mxCell id="BVVbuW9btlbcQaSLM_UI-3" value="&amp;nbsp;int n;" style="rounded=0;whiteSpace=wrap;html=1;" vertex="1" parent="1">
          <mxGeometry x="340" y="200" width="120" height="60" as="geometry" />
        </mxCell>
        <mxCell id="BVVbuW9btlbcQaSLM_UI-40" style="edgeStyle=orthogonalEdgeStyle;rounded=0;orthogonalLoop=1;jettySize=auto;html=1;exitX=0.5;exitY=1;exitDx=0;exitDy=0;entryX=0.5;entryY=0;entryDx=0;entryDy=0;" edge="1" parent="1" source="BVVbuW9btlbcQaSLM_UI-4" target="BVVbuW9btlbcQaSLM_UI-7">
          <mxGeometry relative="1" as="geometry" />
        </mxCell>
        <mxCell id="BVVbuW9btlbcQaSLM_UI-4" value="&amp;nbsp;cin &amp;gt;&amp;gt; n;" style="shape=parallelogram;perimeter=parallelogramPerimeter;whiteSpace=wrap;html=1;fixedSize=1;" vertex="1" parent="1">
          <mxGeometry x="340" y="280" width="120" height="60" as="geometry" />
        </mxCell>
        <mxCell id="BVVbuW9btlbcQaSLM_UI-41" style="edgeStyle=orthogonalEdgeStyle;rounded=0;orthogonalLoop=1;jettySize=auto;html=1;exitX=0.5;exitY=1;exitDx=0;exitDy=0;entryX=0.5;entryY=0;entryDx=0;entryDy=0;" edge="1" parent="1" source="BVVbuW9btlbcQaSLM_UI-7" target="BVVbuW9btlbcQaSLM_UI-8">
          <mxGeometry relative="1" as="geometry" />
        </mxCell>
        <mxCell id="BVVbuW9btlbcQaSLM_UI-7" value="int a[n];" style="rounded=0;whiteSpace=wrap;html=1;" vertex="1" parent="1">
          <mxGeometry x="340" y="360" width="120" height="60" as="geometry" />
        </mxCell>
        <mxCell id="BVVbuW9btlbcQaSLM_UI-42" style="edgeStyle=orthogonalEdgeStyle;rounded=0;orthogonalLoop=1;jettySize=auto;html=1;exitX=0.5;exitY=1;exitDx=0;exitDy=0;entryX=0.5;entryY=0;entryDx=0;entryDy=0;" edge="1" parent="1" source="BVVbuW9btlbcQaSLM_UI-8" target="BVVbuW9btlbcQaSLM_UI-9">
          <mxGeometry relative="1" as="geometry" />
        </mxCell>
        <mxCell id="BVVbuW9btlbcQaSLM_UI-8" value="&lt;div&gt;range_min = 2;&lt;/div&gt;&lt;div&gt;&amp;nbsp; &amp;nbsp; range_max = 280000;&lt;/div&gt;" style="rounded=0;whiteSpace=wrap;html=1;" vertex="1" parent="1">
          <mxGeometry x="340" y="440" width="120" height="60" as="geometry" />
        </mxCell>
        <mxCell id="BVVbuW9btlbcQaSLM_UI-13" style="edgeStyle=orthogonalEdgeStyle;rounded=0;orthogonalLoop=1;jettySize=auto;html=1;exitX=0.5;exitY=1;exitDx=0;exitDy=0;entryX=0.5;entryY=0;entryDx=0;entryDy=0;" edge="1" parent="1" source="BVVbuW9btlbcQaSLM_UI-9" target="BVVbuW9btlbcQaSLM_UI-11">
          <mxGeometry relative="1" as="geometry" />
        </mxCell>
        <mxCell id="BVVbuW9btlbcQaSLM_UI-17" style="edgeStyle=orthogonalEdgeStyle;rounded=0;orthogonalLoop=1;jettySize=auto;html=1;exitX=1;exitY=0.5;exitDx=0;exitDy=0;entryX=0.5;entryY=0;entryDx=0;entryDy=0;" edge="1" parent="1" source="BVVbuW9btlbcQaSLM_UI-9" target="BVVbuW9btlbcQaSLM_UI-16">
          <mxGeometry relative="1" as="geometry">
            <Array as="points">
              <mxPoint x="530" y="568" />
              <mxPoint x="530" y="800" />
              <mxPoint x="400" y="800" />
            </Array>
          </mxGeometry>
        </mxCell>
        <mxCell id="BVVbuW9btlbcQaSLM_UI-9" value="" style="verticalLabelPosition=bottom;verticalAlign=top;html=1;shape=hexagon;perimeter=hexagonPerimeter2;arcSize=6;size=0.27;" vertex="1" parent="1">
          <mxGeometry x="315" y="530" width="170" height="75" as="geometry" />
        </mxCell>
        <mxCell id="BVVbuW9btlbcQaSLM_UI-10" value="&amp;nbsp;for (int i = 0; i &amp;lt; n; i++)" style="text;html=1;align=center;verticalAlign=middle;resizable=0;points=[];autosize=1;strokeColor=none;fillColor=none;" vertex="1" parent="1">
          <mxGeometry x="330" y="552.5" width="140" height="30" as="geometry" />
        </mxCell>
        <mxCell id="BVVbuW9btlbcQaSLM_UI-14" style="edgeStyle=orthogonalEdgeStyle;rounded=0;orthogonalLoop=1;jettySize=auto;html=1;exitX=0.5;exitY=1;exitDx=0;exitDy=0;entryX=0.5;entryY=0;entryDx=0;entryDy=0;" edge="1" parent="1" source="BVVbuW9btlbcQaSLM_UI-11" target="BVVbuW9btlbcQaSLM_UI-12">
          <mxGeometry relative="1" as="geometry" />
        </mxCell>
        <mxCell id="BVVbuW9btlbcQaSLM_UI-11" value="a[i] = ((double)rand() / RAND_MAX) * (range_max - range_min) + range_min;" style="rounded=0;whiteSpace=wrap;html=1;" vertex="1" parent="1">
          <mxGeometry x="290" y="630" width="220" height="70" as="geometry" />
        </mxCell>
        <mxCell id="BVVbuW9btlbcQaSLM_UI-15" style="edgeStyle=orthogonalEdgeStyle;rounded=0;orthogonalLoop=1;jettySize=auto;html=1;exitX=0;exitY=0.5;exitDx=0;exitDy=0;entryX=0;entryY=0.5;entryDx=0;entryDy=0;" edge="1" parent="1" source="BVVbuW9btlbcQaSLM_UI-12" target="BVVbuW9btlbcQaSLM_UI-9">
          <mxGeometry relative="1" as="geometry">
            <Array as="points">
              <mxPoint x="280" y="760" />
              <mxPoint x="280" y="568" />
            </Array>
          </mxGeometry>
        </mxCell>
        <mxCell id="BVVbuW9btlbcQaSLM_UI-12" value="cout &lt;&lt; a[i] &lt;&lt; &quot; &quot;;" style="shape=parallelogram;perimeter=parallelogramPerimeter;whiteSpace=wrap;html=1;fixedSize=1;" vertex="1" parent="1">
          <mxGeometry x="340" y="730" width="120" height="60" as="geometry" />
        </mxCell>
        <mxCell id="BVVbuW9btlbcQaSLM_UI-21" style="edgeStyle=orthogonalEdgeStyle;rounded=0;orthogonalLoop=1;jettySize=auto;html=1;exitX=0.5;exitY=1;exitDx=0;exitDy=0;entryX=0.5;entryY=0;entryDx=0;entryDy=0;" edge="1" parent="1" source="BVVbuW9btlbcQaSLM_UI-16" target="BVVbuW9btlbcQaSLM_UI-19">
          <mxGeometry relative="1" as="geometry" />
        </mxCell>
        <mxCell id="BVVbuW9btlbcQaSLM_UI-16" value="cout &amp;lt;&amp;lt; endl;" style="shape=parallelogram;perimeter=parallelogramPerimeter;whiteSpace=wrap;html=1;fixedSize=1;" vertex="1" parent="1">
          <mxGeometry x="340" y="820" width="120" height="60" as="geometry" />
        </mxCell>
        <mxCell id="BVVbuW9btlbcQaSLM_UI-26" style="edgeStyle=orthogonalEdgeStyle;rounded=0;orthogonalLoop=1;jettySize=auto;html=1;exitX=0.5;exitY=1;exitDx=0;exitDy=0;entryX=0.5;entryY=0;entryDx=0;entryDy=0;" edge="1" parent="1" source="BVVbuW9btlbcQaSLM_UI-18" target="BVVbuW9btlbcQaSLM_UI-24">
          <mxGeometry relative="1" as="geometry" />
        </mxCell>
        <mxCell id="BVVbuW9btlbcQaSLM_UI-18" value="&amp;nbsp;cin &amp;gt;&amp;gt; chislo;" style="shape=parallelogram;perimeter=parallelogramPerimeter;whiteSpace=wrap;html=1;fixedSize=1;" vertex="1" parent="1">
          <mxGeometry x="340" y="980" width="120" height="60" as="geometry" />
        </mxCell>
        <mxCell id="BVVbuW9btlbcQaSLM_UI-22" style="edgeStyle=orthogonalEdgeStyle;rounded=0;orthogonalLoop=1;jettySize=auto;html=1;exitX=0.5;exitY=1;exitDx=0;exitDy=0;entryX=0.5;entryY=0;entryDx=0;entryDy=0;" edge="1" parent="1" source="BVVbuW9btlbcQaSLM_UI-19" target="BVVbuW9btlbcQaSLM_UI-18">
          <mxGeometry relative="1" as="geometry" />
        </mxCell>
        <mxCell id="BVVbuW9btlbcQaSLM_UI-19" value="int chislo;" style="rounded=0;whiteSpace=wrap;html=1;" vertex="1" parent="1">
          <mxGeometry x="340" y="900" width="120" height="60" as="geometry" />
        </mxCell>
        <mxCell id="BVVbuW9btlbcQaSLM_UI-28" style="edgeStyle=orthogonalEdgeStyle;rounded=0;orthogonalLoop=1;jettySize=auto;html=1;exitX=0.5;exitY=1;exitDx=0;exitDy=0;entryX=0;entryY=0.5;entryDx=0;entryDy=0;" edge="1" parent="1" source="BVVbuW9btlbcQaSLM_UI-24" target="BVVbuW9btlbcQaSLM_UI-27">
          <mxGeometry relative="1" as="geometry" />
        </mxCell>
        <mxCell id="BVVbuW9btlbcQaSLM_UI-36" style="edgeStyle=orthogonalEdgeStyle;rounded=0;orthogonalLoop=1;jettySize=auto;html=1;exitX=1;exitY=0.5;exitDx=0;exitDy=0;" edge="1" parent="1" source="BVVbuW9btlbcQaSLM_UI-24" target="BVVbuW9btlbcQaSLM_UI-35">
          <mxGeometry relative="1" as="geometry">
            <Array as="points">
              <mxPoint x="510" y="1095" />
              <mxPoint x="510" y="1310" />
              <mxPoint x="400" y="1310" />
            </Array>
          </mxGeometry>
        </mxCell>
        <mxCell id="BVVbuW9btlbcQaSLM_UI-24" value="" style="verticalLabelPosition=bottom;verticalAlign=top;html=1;shape=hexagon;perimeter=hexagonPerimeter2;arcSize=6;size=0.27;" vertex="1" parent="1">
          <mxGeometry x="300" y="1060" width="200" height="70" as="geometry" />
        </mxCell>
        <mxCell id="BVVbuW9btlbcQaSLM_UI-25" value="for (int i = 0; i &amp;lt; n - 1; i++)" style="text;html=1;align=center;verticalAlign=middle;resizable=0;points=[];autosize=1;strokeColor=none;fillColor=none;" vertex="1" parent="1">
          <mxGeometry x="330" y="1080" width="160" height="30" as="geometry" />
        </mxCell>
        <mxCell id="BVVbuW9btlbcQaSLM_UI-29" style="edgeStyle=orthogonalEdgeStyle;rounded=0;orthogonalLoop=1;jettySize=auto;html=1;exitX=0.5;exitY=1;exitDx=0;exitDy=0;" edge="1" parent="1" source="BVVbuW9btlbcQaSLM_UI-27" target="BVVbuW9btlbcQaSLM_UI-30">
          <mxGeometry relative="1" as="geometry">
            <mxPoint x="320" y="1240" as="targetPoint" />
          </mxGeometry>
        </mxCell>
        <mxCell id="BVVbuW9btlbcQaSLM_UI-32" style="edgeStyle=orthogonalEdgeStyle;rounded=0;orthogonalLoop=1;jettySize=auto;html=1;exitX=0.5;exitY=0;exitDx=0;exitDy=0;entryX=0;entryY=0.5;entryDx=0;entryDy=0;" edge="1" parent="1" source="BVVbuW9btlbcQaSLM_UI-27" target="BVVbuW9btlbcQaSLM_UI-24">
          <mxGeometry relative="1" as="geometry">
            <Array as="points">
              <mxPoint x="478" y="1190" />
              <mxPoint x="478" y="1280" />
              <mxPoint x="240" y="1280" />
              <mxPoint x="240" y="1095" />
            </Array>
          </mxGeometry>
        </mxCell>
        <mxCell id="BVVbuW9btlbcQaSLM_UI-27" value="&amp;nbsp;if (chislo - 1 &amp;lt;= i)" style="rhombus;whiteSpace=wrap;html=1;direction=south;" vertex="1" parent="1">
          <mxGeometry x="342.5" y="1150" width="115" height="80" as="geometry" />
        </mxCell>
        <mxCell id="BVVbuW9btlbcQaSLM_UI-31" style="edgeStyle=orthogonalEdgeStyle;rounded=0;orthogonalLoop=1;jettySize=auto;html=1;exitX=0.5;exitY=1;exitDx=0;exitDy=0;entryX=0;entryY=0.5;entryDx=0;entryDy=0;" edge="1" parent="1" source="BVVbuW9btlbcQaSLM_UI-30" target="BVVbuW9btlbcQaSLM_UI-24">
          <mxGeometry relative="1" as="geometry">
            <Array as="points">
              <mxPoint x="310" y="1280" />
              <mxPoint x="240" y="1280" />
              <mxPoint x="240" y="1095" />
            </Array>
          </mxGeometry>
        </mxCell>
        <mxCell id="BVVbuW9btlbcQaSLM_UI-30" value="a[i] = a[i + 1];" style="rounded=0;whiteSpace=wrap;html=1;" vertex="1" parent="1">
          <mxGeometry x="250" y="1230" width="120" height="40" as="geometry" />
        </mxCell>
        <mxCell id="BVVbuW9btlbcQaSLM_UI-33" value="1" style="text;html=1;align=center;verticalAlign=middle;resizable=0;points=[];autosize=1;strokeColor=none;fillColor=none;" vertex="1" parent="1">
          <mxGeometry x="325" y="1168" width="30" height="30" as="geometry" />
        </mxCell>
        <mxCell id="BVVbuW9btlbcQaSLM_UI-34" value="0" style="text;html=1;align=center;verticalAlign=middle;resizable=0;points=[];autosize=1;strokeColor=none;fillColor=none;" vertex="1" parent="1">
          <mxGeometry x="445" y="1168" width="30" height="30" as="geometry" />
        </mxCell>
        <mxCell id="BVVbuW9btlbcQaSLM_UI-46" style="edgeStyle=orthogonalEdgeStyle;rounded=0;orthogonalLoop=1;jettySize=auto;html=1;exitX=0.5;exitY=1;exitDx=0;exitDy=0;entryX=0.5;entryY=0;entryDx=0;entryDy=0;" edge="1" parent="1" source="BVVbuW9btlbcQaSLM_UI-35" target="BVVbuW9btlbcQaSLM_UI-43">
          <mxGeometry relative="1" as="geometry" />
        </mxCell>
        <mxCell id="BVVbuW9btlbcQaSLM_UI-35" value="bool num = false;" style="rounded=0;whiteSpace=wrap;html=1;" vertex="1" parent="1">
          <mxGeometry x="340" y="1320" width="120" height="60" as="geometry" />
        </mxCell>
        <mxCell id="BVVbuW9btlbcQaSLM_UI-49" style="edgeStyle=orthogonalEdgeStyle;rounded=0;orthogonalLoop=1;jettySize=auto;html=1;exitX=0.5;exitY=1;exitDx=0;exitDy=0;entryX=0.5;entryY=0;entryDx=0;entryDy=0;" edge="1" parent="1" source="BVVbuW9btlbcQaSLM_UI-43" target="BVVbuW9btlbcQaSLM_UI-48">
          <mxGeometry relative="1" as="geometry" />
        </mxCell>
        <mxCell id="BVVbuW9btlbcQaSLM_UI-67" style="edgeStyle=orthogonalEdgeStyle;rounded=0;orthogonalLoop=1;jettySize=auto;html=1;exitX=1;exitY=0.5;exitDx=0;exitDy=0;entryX=0.5;entryY=0;entryDx=0;entryDy=0;" edge="1" parent="1" source="BVVbuW9btlbcQaSLM_UI-43" target="BVVbuW9btlbcQaSLM_UI-66">
          <mxGeometry relative="1" as="geometry">
            <Array as="points">
              <mxPoint x="500" y="1430" />
              <mxPoint x="500" y="2060" />
              <mxPoint x="414" y="2060" />
            </Array>
          </mxGeometry>
        </mxCell>
        <mxCell id="BVVbuW9btlbcQaSLM_UI-43" value="" style="verticalLabelPosition=bottom;verticalAlign=top;html=1;shape=hexagon;perimeter=hexagonPerimeter2;arcSize=6;size=0.27;" vertex="1" parent="1">
          <mxGeometry x="310" y="1400" width="170" height="60" as="geometry" />
        </mxCell>
        <mxCell id="BVVbuW9btlbcQaSLM_UI-44" value="for (int i = 0; i &amp;lt; n; i++)" style="text;html=1;align=center;verticalAlign=middle;resizable=0;points=[];autosize=1;strokeColor=none;fillColor=none;" vertex="1" parent="1">
          <mxGeometry x="330" y="1415" width="140" height="30" as="geometry" />
        </mxCell>
        <mxCell id="BVVbuW9btlbcQaSLM_UI-51" style="edgeStyle=orthogonalEdgeStyle;rounded=0;orthogonalLoop=1;jettySize=auto;html=1;exitX=0;exitY=0.5;exitDx=0;exitDy=0;entryX=0.5;entryY=0;entryDx=0;entryDy=0;" edge="1" parent="1" source="BVVbuW9btlbcQaSLM_UI-48" target="BVVbuW9btlbcQaSLM_UI-50">
          <mxGeometry relative="1" as="geometry" />
        </mxCell>
        <mxCell id="BVVbuW9btlbcQaSLM_UI-65" style="edgeStyle=orthogonalEdgeStyle;rounded=0;orthogonalLoop=1;jettySize=auto;html=1;exitX=1;exitY=0.5;exitDx=0;exitDy=0;entryX=0;entryY=0.5;entryDx=0;entryDy=0;" edge="1" parent="1" source="BVVbuW9btlbcQaSLM_UI-48" target="BVVbuW9btlbcQaSLM_UI-43">
          <mxGeometry relative="1" as="geometry">
            <Array as="points">
              <mxPoint x="480" y="1520" />
              <mxPoint x="480" y="2040" />
              <mxPoint x="190" y="2040" />
              <mxPoint x="190" y="1430" />
            </Array>
          </mxGeometry>
        </mxCell>
        <mxCell id="BVVbuW9btlbcQaSLM_UI-48" value="if (a[i] % 2 == 0)" style="rhombus;whiteSpace=wrap;html=1;" vertex="1" parent="1">
          <mxGeometry x="340" y="1480" width="120" height="80" as="geometry" />
        </mxCell>
        <mxCell id="BVVbuW9btlbcQaSLM_UI-54" style="edgeStyle=orthogonalEdgeStyle;rounded=0;orthogonalLoop=1;jettySize=auto;html=1;exitX=0.5;exitY=1;exitDx=0;exitDy=0;entryX=0.5;entryY=0;entryDx=0;entryDy=0;" edge="1" parent="1" source="BVVbuW9btlbcQaSLM_UI-50" target="BVVbuW9btlbcQaSLM_UI-52">
          <mxGeometry relative="1" as="geometry" />
        </mxCell>
        <mxCell id="BVVbuW9btlbcQaSLM_UI-50" value="num = true;" style="rounded=0;whiteSpace=wrap;html=1;" vertex="1" parent="1">
          <mxGeometry x="250" y="1560" width="120" height="60" as="geometry" />
        </mxCell>
        <mxCell id="BVVbuW9btlbcQaSLM_UI-56" style="edgeStyle=orthogonalEdgeStyle;rounded=0;orthogonalLoop=1;jettySize=auto;html=1;exitX=0.5;exitY=1;exitDx=0;exitDy=0;entryX=0.5;entryY=0;entryDx=0;entryDy=0;" edge="1" parent="1" source="BVVbuW9btlbcQaSLM_UI-52" target="BVVbuW9btlbcQaSLM_UI-55">
          <mxGeometry relative="1" as="geometry" />
        </mxCell>
        <mxCell id="BVVbuW9btlbcQaSLM_UI-61" style="edgeStyle=orthogonalEdgeStyle;rounded=0;orthogonalLoop=1;jettySize=auto;html=1;exitX=1;exitY=0.5;exitDx=0;exitDy=0;entryX=0.5;entryY=0;entryDx=0;entryDy=0;" edge="1" parent="1" source="BVVbuW9btlbcQaSLM_UI-52" target="BVVbuW9btlbcQaSLM_UI-58">
          <mxGeometry relative="1" as="geometry">
            <Array as="points">
              <mxPoint x="420" y="1670" />
              <mxPoint x="420" y="1780" />
              <mxPoint x="310" y="1780" />
            </Array>
          </mxGeometry>
        </mxCell>
        <mxCell id="BVVbuW9btlbcQaSLM_UI-52" value="" style="verticalLabelPosition=bottom;verticalAlign=top;html=1;shape=hexagon;perimeter=hexagonPerimeter2;arcSize=6;size=0.27;" vertex="1" parent="1">
          <mxGeometry x="220" y="1640" width="180" height="60" as="geometry" />
        </mxCell>
        <mxCell id="BVVbuW9btlbcQaSLM_UI-53" value="for (int j = n; j &amp;gt; i + 1; j--)" style="text;html=1;align=center;verticalAlign=middle;resizable=0;points=[];autosize=1;strokeColor=none;fillColor=none;" vertex="1" parent="1">
          <mxGeometry x="235" y="1655" width="150" height="30" as="geometry" />
        </mxCell>
        <mxCell id="BVVbuW9btlbcQaSLM_UI-57" style="edgeStyle=orthogonalEdgeStyle;rounded=0;orthogonalLoop=1;jettySize=auto;html=1;exitX=0;exitY=0.5;exitDx=0;exitDy=0;entryX=0;entryY=0.5;entryDx=0;entryDy=0;" edge="1" parent="1" source="BVVbuW9btlbcQaSLM_UI-55" target="BVVbuW9btlbcQaSLM_UI-52">
          <mxGeometry relative="1" as="geometry" />
        </mxCell>
        <mxCell id="BVVbuW9btlbcQaSLM_UI-55" value="a[j] = a[j - 1];" style="rounded=0;whiteSpace=wrap;html=1;" vertex="1" parent="1">
          <mxGeometry x="260" y="1720" width="100" height="44" as="geometry" />
        </mxCell>
        <mxCell id="BVVbuW9btlbcQaSLM_UI-62" style="edgeStyle=orthogonalEdgeStyle;rounded=0;orthogonalLoop=1;jettySize=auto;html=1;exitX=0.5;exitY=1;exitDx=0;exitDy=0;entryX=0.5;entryY=0;entryDx=0;entryDy=0;" edge="1" parent="1" source="BVVbuW9btlbcQaSLM_UI-58" target="BVVbuW9btlbcQaSLM_UI-59">
          <mxGeometry relative="1" as="geometry" />
        </mxCell>
        <mxCell id="BVVbuW9btlbcQaSLM_UI-58" value="a[i + 1] = a[i] + 2;" style="rounded=0;whiteSpace=wrap;html=1;" vertex="1" parent="1">
          <mxGeometry x="250" y="1800" width="120" height="60" as="geometry" />
        </mxCell>
        <mxCell id="BVVbuW9btlbcQaSLM_UI-63" style="edgeStyle=orthogonalEdgeStyle;rounded=0;orthogonalLoop=1;jettySize=auto;html=1;exitX=0.5;exitY=1;exitDx=0;exitDy=0;entryX=0.5;entryY=0;entryDx=0;entryDy=0;" edge="1" parent="1" source="BVVbuW9btlbcQaSLM_UI-59" target="BVVbuW9btlbcQaSLM_UI-60">
          <mxGeometry relative="1" as="geometry" />
        </mxCell>
        <mxCell id="BVVbuW9btlbcQaSLM_UI-59" value="&lt;div&gt;n++;&lt;/div&gt;&lt;div&gt;break;&lt;/div&gt;" style="rounded=0;whiteSpace=wrap;html=1;" vertex="1" parent="1">
          <mxGeometry x="250" y="1880" width="120" height="60" as="geometry" />
        </mxCell>
        <mxCell id="BVVbuW9btlbcQaSLM_UI-64" style="edgeStyle=orthogonalEdgeStyle;rounded=0;orthogonalLoop=1;jettySize=auto;html=1;exitX=0.5;exitY=1;exitDx=0;exitDy=0;entryX=0;entryY=0.5;entryDx=0;entryDy=0;" edge="1" parent="1" source="BVVbuW9btlbcQaSLM_UI-60" target="BVVbuW9btlbcQaSLM_UI-43">
          <mxGeometry relative="1" as="geometry">
            <Array as="points">
              <mxPoint x="310" y="2040" />
              <mxPoint x="190" y="2040" />
              <mxPoint x="190" y="1430" />
            </Array>
          </mxGeometry>
        </mxCell>
        <mxCell id="BVVbuW9btlbcQaSLM_UI-60" value="cout &amp;lt;&amp;lt; a[i] &amp;lt;&amp;lt; &quot; &quot;;" style="shape=parallelogram;perimeter=parallelogramPerimeter;whiteSpace=wrap;html=1;fixedSize=1;" vertex="1" parent="1">
          <mxGeometry x="240" y="1960" width="140" height="60" as="geometry" />
        </mxCell>
        <mxCell id="BVVbuW9btlbcQaSLM_UI-70" style="edgeStyle=orthogonalEdgeStyle;rounded=0;orthogonalLoop=1;jettySize=auto;html=1;exitX=0;exitY=0.5;exitDx=0;exitDy=0;entryX=0.5;entryY=0;entryDx=0;entryDy=0;" edge="1" parent="1" source="BVVbuW9btlbcQaSLM_UI-66" target="BVVbuW9btlbcQaSLM_UI-68">
          <mxGeometry relative="1" as="geometry" />
        </mxCell>
        <mxCell id="BVVbuW9btlbcQaSLM_UI-71" style="edgeStyle=orthogonalEdgeStyle;rounded=0;orthogonalLoop=1;jettySize=auto;html=1;exitX=1;exitY=0.5;exitDx=0;exitDy=0;entryX=0.5;entryY=0;entryDx=0;entryDy=0;" edge="1" parent="1" source="BVVbuW9btlbcQaSLM_UI-66" target="BVVbuW9btlbcQaSLM_UI-69">
          <mxGeometry relative="1" as="geometry" />
        </mxCell>
        <mxCell id="BVVbuW9btlbcQaSLM_UI-66" value="&amp;nbsp;if (!num)" style="rhombus;whiteSpace=wrap;html=1;" vertex="1" parent="1">
          <mxGeometry x="374" y="2080" width="80" height="80" as="geometry" />
        </mxCell>
        <mxCell id="BVVbuW9btlbcQaSLM_UI-88" style="edgeStyle=orthogonalEdgeStyle;rounded=0;orthogonalLoop=1;jettySize=auto;html=1;exitX=0.5;exitY=1;exitDx=0;exitDy=0;entryX=0.5;entryY=0;entryDx=0;entryDy=0;" edge="1" parent="1" source="BVVbuW9btlbcQaSLM_UI-68" target="BVVbuW9btlbcQaSLM_UI-84">
          <mxGeometry relative="1" as="geometry">
            <Array as="points">
              <mxPoint x="250" y="2460" />
              <mxPoint x="420" y="2460" />
            </Array>
          </mxGeometry>
        </mxCell>
        <mxCell id="BVVbuW9btlbcQaSLM_UI-68" value="&amp;nbsp;cout &amp;lt;&amp;lt; &quot;В массиве нет четных элементов!&quot; &amp;lt;&amp;lt; endl;" style="shape=parallelogram;perimeter=parallelogramPerimeter;whiteSpace=wrap;html=1;fixedSize=1;" vertex="1" parent="1">
          <mxGeometry x="145" y="2160" width="210" height="60" as="geometry" />
        </mxCell>
        <mxCell id="BVVbuW9btlbcQaSLM_UI-76" style="edgeStyle=orthogonalEdgeStyle;rounded=0;orthogonalLoop=1;jettySize=auto;html=1;exitX=0.5;exitY=1;exitDx=0;exitDy=0;entryX=0.5;entryY=0;entryDx=0;entryDy=0;" edge="1" parent="1" source="BVVbuW9btlbcQaSLM_UI-69" target="BVVbuW9btlbcQaSLM_UI-74">
          <mxGeometry relative="1" as="geometry" />
        </mxCell>
        <mxCell id="BVVbuW9btlbcQaSLM_UI-69" value="&amp;nbsp;cout &amp;lt;&amp;lt; &quot;Итоговый массив: &quot; &amp;lt;&amp;lt; endl;" style="shape=parallelogram;perimeter=parallelogramPerimeter;whiteSpace=wrap;html=1;fixedSize=1;" vertex="1" parent="1">
          <mxGeometry x="458.75" y="2160" width="202.5" height="60" as="geometry" />
        </mxCell>
        <mxCell id="BVVbuW9btlbcQaSLM_UI-72" value="1" style="text;html=1;align=center;verticalAlign=middle;resizable=0;points=[];autosize=1;strokeColor=none;fillColor=none;" vertex="1" parent="1">
          <mxGeometry x="350" y="2098" width="30" height="30" as="geometry" />
        </mxCell>
        <mxCell id="BVVbuW9btlbcQaSLM_UI-73" value="0" style="text;html=1;align=center;verticalAlign=middle;resizable=0;points=[];autosize=1;strokeColor=none;fillColor=none;" vertex="1" parent="1">
          <mxGeometry x="445" y="2098" width="30" height="30" as="geometry" />
        </mxCell>
        <mxCell id="BVVbuW9btlbcQaSLM_UI-80" style="edgeStyle=orthogonalEdgeStyle;rounded=0;orthogonalLoop=1;jettySize=auto;html=1;exitX=0.5;exitY=1;exitDx=0;exitDy=0;entryX=0.5;entryY=0;entryDx=0;entryDy=0;" edge="1" parent="1" source="BVVbuW9btlbcQaSLM_UI-74" target="BVVbuW9btlbcQaSLM_UI-77">
          <mxGeometry relative="1" as="geometry" />
        </mxCell>
        <mxCell id="BVVbuW9btlbcQaSLM_UI-83" style="edgeStyle=orthogonalEdgeStyle;rounded=0;orthogonalLoop=1;jettySize=auto;html=1;exitX=1;exitY=0.5;exitDx=0;exitDy=0;" edge="1" parent="1" source="BVVbuW9btlbcQaSLM_UI-74" target="BVVbuW9btlbcQaSLM_UI-82">
          <mxGeometry relative="1" as="geometry">
            <Array as="points">
              <mxPoint x="669" y="2270" />
              <mxPoint x="669" y="2380" />
              <mxPoint x="560" y="2380" />
            </Array>
          </mxGeometry>
        </mxCell>
        <mxCell id="BVVbuW9btlbcQaSLM_UI-74" value="" style="verticalLabelPosition=bottom;verticalAlign=top;html=1;shape=hexagon;perimeter=hexagonPerimeter2;arcSize=6;size=0.27;" vertex="1" parent="1">
          <mxGeometry x="469.37" y="2240" width="181.25" height="60" as="geometry" />
        </mxCell>
        <mxCell id="BVVbuW9btlbcQaSLM_UI-75" value="for (int i = 0; i &amp;lt; n; i++)" style="text;html=1;align=center;verticalAlign=middle;resizable=0;points=[];autosize=1;strokeColor=none;fillColor=none;" vertex="1" parent="1">
          <mxGeometry x="498.75" y="2255" width="140" height="30" as="geometry" />
        </mxCell>
        <mxCell id="BVVbuW9btlbcQaSLM_UI-81" style="edgeStyle=orthogonalEdgeStyle;rounded=0;orthogonalLoop=1;jettySize=auto;html=1;exitX=0;exitY=0.5;exitDx=0;exitDy=0;entryX=0;entryY=0.5;entryDx=0;entryDy=0;" edge="1" parent="1" source="BVVbuW9btlbcQaSLM_UI-77" target="BVVbuW9btlbcQaSLM_UI-74">
          <mxGeometry relative="1" as="geometry">
            <Array as="points">
              <mxPoint x="448" y="2340" />
              <mxPoint x="448" y="2270" />
            </Array>
          </mxGeometry>
        </mxCell>
        <mxCell id="BVVbuW9btlbcQaSLM_UI-77" value="cout &amp;lt;&amp;lt; a[i] &amp;lt;&amp;lt; &quot; &quot;;" style="shape=parallelogram;perimeter=parallelogramPerimeter;whiteSpace=wrap;html=1;fixedSize=1;" vertex="1" parent="1">
          <mxGeometry x="498.75" y="2310" width="120" height="60" as="geometry" />
        </mxCell>
        <mxCell id="BVVbuW9btlbcQaSLM_UI-87" style="edgeStyle=orthogonalEdgeStyle;rounded=0;orthogonalLoop=1;jettySize=auto;html=1;exitX=0.5;exitY=1;exitDx=0;exitDy=0;" edge="1" parent="1" source="BVVbuW9btlbcQaSLM_UI-82" target="BVVbuW9btlbcQaSLM_UI-84">
          <mxGeometry relative="1" as="geometry">
            <Array as="points">
              <mxPoint x="560" y="2460" />
              <mxPoint x="420" y="2460" />
            </Array>
          </mxGeometry>
        </mxCell>
        <mxCell id="BVVbuW9btlbcQaSLM_UI-82" value="cout &amp;lt;&amp;lt; endl;" style="shape=parallelogram;perimeter=parallelogramPerimeter;whiteSpace=wrap;html=1;fixedSize=1;" vertex="1" parent="1">
          <mxGeometry x="500" y="2390" width="120" height="60" as="geometry" />
        </mxCell>
        <mxCell id="BVVbuW9btlbcQaSLM_UI-84" value="Конец" style="ellipse;whiteSpace=wrap;html=1;" vertex="1" parent="1">
          <mxGeometry x="360" y="2520" width="120" height="80" as="geometry" />
        </mxCell>
        <mxCell id="BVVbuW9btlbcQaSLM_UI-89" value="&lt;div&gt;#include &amp;lt;iostream&amp;gt;&lt;/div&gt;&lt;div&gt;#include &amp;lt;cstdlib&amp;gt;&lt;/div&gt;&lt;div&gt;using namespace std;&lt;/div&gt;&lt;div&gt;int main()&lt;/div&gt;&lt;div&gt;{&lt;/div&gt;&lt;div&gt;&amp;nbsp; &amp;nbsp; setlocale(LC_ALL, &quot;RU&quot;);&lt;/div&gt;" style="strokeWidth=2;html=1;shape=mxgraph.flowchart.annotation_1;align=left;pointerEvents=1;" vertex="1" parent="1">
          <mxGeometry x="580" y="30" width="60" height="100" as="geometry" />
        </mxCell>
        <mxCell id="BVVbuW9btlbcQaSLM_UI-90" value="" style="endArrow=none;dashed=1;html=1;dashPattern=1 3;strokeWidth=2;rounded=0;entryX=0;entryY=0.5;entryDx=0;entryDy=0;entryPerimeter=0;" edge="1" parent="1" target="BVVbuW9btlbcQaSLM_UI-89">
          <mxGeometry width="50" height="50" relative="1" as="geometry">
            <mxPoint x="400" y="80" as="sourcePoint" />
            <mxPoint x="440" y="210" as="targetPoint" />
          </mxGeometry>
        </mxCell>
        <mxCell id="BVVbuW9btlbcQaSLM_UI-91" value="1" style="text;html=1;align=center;verticalAlign=middle;resizable=0;points=[];autosize=1;strokeColor=none;fillColor=none;" vertex="1" parent="1">
          <mxGeometry x="315" y="1498" width="30" height="30" as="geometry" />
        </mxCell>
        <mxCell id="BVVbuW9btlbcQaSLM_UI-92" value="0" style="text;html=1;align=center;verticalAlign=middle;resizable=0;points=[];autosize=1;strokeColor=none;fillColor=none;" vertex="1" parent="1">
          <mxGeometry x="445" y="1498" width="30" height="30" as="geometry" />
        </mxCell>
        <mxCell id="BVVbuW9btlbcQaSLM_UI-93" value="&lt;div&gt;&amp;nbsp; &amp;nbsp; return 0;&lt;/div&gt;&lt;div&gt;}&lt;/div&gt;" style="strokeWidth=2;html=1;shape=mxgraph.flowchart.annotation_1;align=left;pointerEvents=1;" vertex="1" parent="1">
          <mxGeometry x="618.75" y="2450" width="50" height="100" as="geometry" />
        </mxCell>
        <mxCell id="BVVbuW9btlbcQaSLM_UI-94" value="" style="endArrow=none;dashed=1;html=1;dashPattern=1 3;strokeWidth=2;rounded=0;entryX=0;entryY=0.5;entryDx=0;entryDy=0;entryPerimeter=0;" edge="1" parent="1" target="BVVbuW9btlbcQaSLM_UI-93">
          <mxGeometry width="50" height="50" relative="1" as="geometry">
            <mxPoint x="420" y="2500" as="sourcePoint" />
            <mxPoint x="440" y="2310" as="targetPoint" />
          </mxGeometry>
        </mxCell>
      </root>
    </mxGraphModel>
  </diagram>
</mxfile>
